<svg xmlns="http://www.w3.org/2000/svg" xmlns:xlink="http://www.w3.org/1999/xlink" version="1.1" id="layer" x="0px" y="0px" style="enable-background:new 0 0 652 652;" xml:space="preserve" viewBox="26.6 270.7 600.1 110.2">
<style type="text/css">
	.st0{fill:#00D2EA;}
	.st1{fill:#ffffff;}
</style>
<path class="st0" d="M177.7,331.7c0,5.8,4.4,10,9.6,10c5.2,0,9.6-4.3,9.6-10.1c0-5.8-4.4-10.1-9.6-10.1  C182.1,321.6,177.7,325.8,177.7,331.7C177.7,331.7,177.7,331.7,177.7,331.7z M165.8,331.6c0-9.7,7-21.2,21.6-21.2  c14.6,0,21.6,11.5,21.6,21.3c0,9.8-7,21.3-21.6,21.3C172.8,352.9,165.8,341.5,165.8,331.6L165.8,331.6z M247.2,331.7  c0-4.7-3.5-10.2-10-10.2c-2.9,0-5.4,1.2-7.2,3c-1.7,1.8-2.8,4.4-2.8,7.3c0,2.8,1.1,5.3,2.9,7.1c1.9,1.9,4.5,3,7.1,3  C243.5,341.9,247.2,336.8,247.2,331.7L247.2,331.7z M215.7,311.7h11.3v4.4c2.6-3,6.6-5.8,12.7-5.8c14.2,0,19.6,12.5,19.6,21.8  c0,11.5-8.1,21-19.5,21c-7.2,0-10.6-3.5-12.1-5v17h-12L215.7,311.7L215.7,311.7z M293.8,326.8c-0.3-1.9-2.7-6.4-8.9-6.4  c-6.2,0-8.7,4.5-8.9,6.4H293.8z M275.8,335.8c0.5,4.3,4.5,7.1,9.2,7.1c3.8,0,5.8-1.7,7.3-3.7h12.3c-1.9,4.5-4.8,7.9-8.2,10.2  c-3.3,2.4-7.3,3.6-11.4,3.6c-11.5,0-21.2-9.3-21.2-21.2c0-11.2,8.8-21.5,21-21.5c6.1,0,11.4,2.4,15.2,6.4c5.1,5.4,6.6,11.8,5.6,19.2  C305.6,335.8,275.8,335.8,275.8,335.8z M312.6,311.7h11.2v4.3c1.4-1.9,3.9-5.6,11-5.6c13.5,0,14.9,11,14.9,16.4v25h-12v-21.9  c0-4.4-0.9-8.3-6.3-8.3c-5.9,0-6.9,4.3-6.9,8.4v21.8h-12L312.6,311.7L312.6,311.7z M116,310.8v30.6c0,4.5-2.4,8.7-6.3,10.9L83,367.7  c-0.7,0.4-1.5,0.7-2.2,1v12.2c1.3-0.3,2.5-0.8,3.7-1.5l34.6-19.9c4.8-2.8,7.8-7.9,7.8-13.5v-39.7c0-1.4-0.2-2.7-0.6-4l-10.6,6.3  C115.9,309.3,116,310.1,116,310.8 M34.4,292.8c-1.4,0.8-2.6,1.8-3.7,3l10.5,6.2c0.8-0.8,1.6-1.5,2.6-2.1l26.6-15.3  c3.9-2.2,8.7-2.2,12.6,0l26.7,15.3c0.8,0.5,1.5,1,2.2,1.6l10.5-6.2c-1-1-2-1.9-3.2-2.6l-34.6-19.9c-4.8-2.8-10.7-2.8-15.6,0  L34.4,292.8z M70.4,367.7l-26.6-15.3c-3.9-2.3-6.3-6.4-6.3-10.9v-30.6c0-0.6,0.1-1.1,0.1-1.6L27,302.9c-0.3,1.1-0.4,2.2-0.4,3.4V346  c0,5.6,3,10.7,7.8,13.5l34.5,19.9c1.2,0.7,2.5,1.2,3.8,1.5v-12.3C71.9,368.4,71.2,368.1,70.4,367.7"/>
<path class="st1" d="M375.7,324.3c-2.6,2.1-3.9,4.8-3.9,8.1c0,3.5,1.2,6.4,3.6,8.8c2.4,2.4,5.6,3.5,9.5,3.5c3.7,0,6.7-1.1,9.1-3.4  c2.3-2.2,3.5-5,3.5-8.4c0-3.3-1.2-6.1-3.5-8.4c-2.3-2.3-5.3-3.5-9.1-3.5C381.4,321.1,378.4,322.2,375.7,324.3L375.7,324.3z   M362,299.8h10.5v17.4h0.2c1.2-1.5,2.7-2.7,4.6-3.5c1.9-0.8,3.9-1.4,5.9-1.7c0.5,0,1-0.1,1.5-0.1c0.5,0,0.9,0,1.4,0  c6.4,0,11.7,2.1,15.8,6.4c4.1,4.2,6.1,9.2,6.1,14.7c0,0.8-0.1,1.7-0.2,2.5c-0.1,0.9-0.3,1.8-0.6,2.6c-0.4,1.7-1.1,3.4-1.9,5  c-0.8,1.6-1.8,3-3,4.3c-2,2.2-4.4,3.8-7.2,4.9c-2.8,1.1-5.8,1.7-8.8,1.7c-3,0-5.8-0.5-8.3-1.5c-2.5-1-4.7-2.7-6.3-5l-0.2-0.1v5.4  H362V299.8z M448.2,332.8c0-3.3-1.2-6.1-3.5-8.3c-2.3-2.3-5.4-3.4-9.1-3.3c-3.8,0-7,1.1-9.4,3.4c-2.4,2.3-3.7,5.2-3.7,8.7  c0,3.2,1.3,6,3.8,8.2c2.5,2.2,5.6,3.3,9.1,3.3c3.8,0.1,6.9-1.1,9.2-3.4C447,339.1,448.2,336.3,448.2,332.8  C448.2,332.9,448.2,332.8,448.2,332.8z M458.1,352.7h-9.6v-5.4h-0.2c-1.3,1.7-3,3.1-5.2,4.2c-2.1,1.1-4.4,1.8-6.7,2.2l-1.5,0.1  c-0.5,0-1,0.1-1.5,0.1c-3.4,0-6.4-0.6-9.1-1.8c-2.6-1.1-5-2.7-6.9-4.8c-1.7-1.9-3.1-4.2-4-6.6c-1-2.5-1.4-5.2-1.4-7.9  c0-2.8,0.4-5.3,1.3-7.7c0.9-2.3,2.3-4.5,4.3-6.6c2.2-2.3,4.7-4.1,7.4-5.2c2.7-1.1,5.7-1.7,8.9-1.7c3,0,5.7,0.6,8.3,1.8  c2.5,1.2,4.7,2.9,6.4,5.1v-5.7h9.6L458.1,352.7L458.1,352.7z M465.9,352.7h10.5v-52.9h-10.5V352.7z M517.9,328.7  c-0.8-2.3-2.4-4.2-4.6-5.5c-2.2-1.3-4.7-2-7.3-2h-0.6c-2.5,0.1-4.9,0.9-7.1,2.2c-2.2,1.3-3.7,3.1-4.4,5.3H517.9z M494,337.1  c0.8,2.3,2.2,4.2,4.4,5.6c2.1,1.4,4.6,2.1,7.1,2.1c2,0,3.9-0.3,5.6-0.9c1.8-0.6,3.1-1.5,4.1-2.5l11.6-0.1c-1.3,3.6-4,6.6-8,9.1  s-8.3,3.7-13,3.7c-6.4,0-11.8-2-16.3-6c-4.5-4-6.7-8.9-6.7-14.7c0-5.9,2.2-10.9,6.7-15.1c4.5-4.2,9.9-6.3,16.5-6.3  c6.2,0,11.5,2.1,15.9,6.2c4.3,4.2,6.5,9,6.5,14.5c0,0.6,0,1.2-0.1,1.8s-0.2,1.2-0.3,1.7c-0.1,0.2-0.1,0.4-0.1,0.5c0,0.1,0,0.3,0,0.4  L494,337.1L494,337.1z M535.2,313.1h9.7v3.7h0.2c1.2-1.5,2.8-2.6,4.8-3.4c2-0.8,4.1-1.3,6.2-1.4h1.6c0.2,0,0.4,0,0.6,0.1  c2.1,0.1,4.2,0.7,6.1,1.5c2,0.9,3.7,2,5.1,3.4l0.6,0.5c0.2,0.2,0.4,0.4,0.5,0.6c1.7,2.1,2.7,4.4,3,6.9c0.3,2.4,0.5,4.9,0.5,7.4v20.5  h-10.5v-20.5c0-0.7,0-1.3-0.1-2c-0.1-1-0.3-2-0.6-3c-0.3-1-0.7-1.9-1.2-2.7c-0.7-1-1.7-1.8-2.8-2.3c-1.1-0.6-2.4-0.9-3.7-1h-1  c-0.2,0-0.4,0-0.6,0.1c-1.2,0.2-2.4,0.5-3.5,1.1c-1.1,0.5-2,1.3-2.7,2.3c-0.5,0.8-0.9,1.7-1.2,2.7c-0.3,1-0.4,2.1-0.5,3.1  c-0.1,0.6-0.1,1.2-0.1,1.9v20.4h-10.5L535.2,313.1L535.2,313.1z M616.7,332.8c0-3.3-1.2-6.1-3.5-8.3c-2.3-2.3-5.4-3.4-9.1-3.3  c-3.8,0-7,1.1-9.4,3.4s-3.7,5.2-3.7,8.7c0,3.2,1.3,6,3.8,8.2c2.5,2.2,5.6,3.3,9.1,3.3c3.8,0.1,6.8-1.1,9.2-3.4  C615.5,339.1,616.7,336.3,616.7,332.8L616.7,332.8L616.7,332.8z M626.6,352.7H617v-5.4h-0.2c-1.3,1.7-3,3.1-5.2,4.2  c-2.1,1.1-4.4,1.8-6.7,2.2l-1.5,0.1c-0.5,0-1,0.1-1.5,0.1c-3.4,0-6.4-0.6-9.1-1.8c-2.6-1.1-5-2.7-6.9-4.8c-1.7-1.9-3.1-4.2-4-6.6  c-1-2.5-1.4-5.2-1.4-7.9c0-2.8,0.4-5.3,1.3-7.7c0.9-2.3,2.3-4.5,4.3-6.6c2.2-2.3,4.7-4.1,7.4-5.2c2.7-1.1,5.7-1.7,8.9-1.7  c3,0,5.7,0.6,8.3,1.8c2.5,1.2,4.7,2.9,6.4,5.1v-5.7h9.6V352.7L626.6,352.7z"/>
</svg>